<svg width="160" height="50" viewBox="0 0 160 50" fill="none" xmlns="http://www.w3.org/2000/svg">
<path d="M24.6684 11.8513C17.4015 11.8513 11.5197 17.7429 11.5197 25C11.5197 32.2669 17.4112 38.1486 24.6684 38.1486C31.9352 38.1486 37.817 32.2571 37.817 25C37.8268 17.7331 31.9352 11.8513 24.6684 11.8513ZM24.6684 33.135C20.1814 33.135 16.5334 29.4967 16.5334 25C16.5334 20.5131 20.1717 16.865 24.6684 16.865C29.1553 16.865 32.8034 20.5033 32.8034 25C32.8034 29.4869 29.165 33.135 24.6684 33.135Z" fill="#BAD345"/>
<path d="M20.7277 0.341397L22.5907 6.20367C23.2735 6.12563 23.9661 6.08662 24.6781 6.08662C25.3804 6.08662 26.0632 6.13539 26.746 6.20367L28.609 0.341397C27.3312 0.136559 26.0242 0 24.6781 0C23.332 0 22.0152 0.136559 20.7277 0.341397Z" fill="#BAD345"/>
<path d="M6.9938 7.36442L11.9489 11.0125C12.4561 10.5443 12.9926 10.1053 13.5681 9.68592C14.1339 9.27624 14.7191 8.90558 15.3141 8.56418L13.3633 2.73118C12.2025 3.32618 11.0711 3.97971 9.97858 4.7698C8.89587 5.55989 7.91069 6.44752 6.9938 7.36442Z" fill="#BAD345"/>
<path d="M0 21.1276L6.1549 21.1666C6.29145 20.4936 6.46703 19.8205 6.68162 19.1475C6.89621 18.4842 7.14982 17.8404 7.43269 17.2162L2.43855 13.6266C1.84354 14.7874 1.31682 15.9871 0.897386 17.2649C0.477955 18.5525 0.204838 19.84 0 21.1276Z" fill="#BAD345"/>
<path d="M2.43855 36.3636L7.43269 32.7741C7.14982 32.1498 6.89621 31.4963 6.67187 30.833C6.45728 30.1697 6.2817 29.4967 6.14514 28.8334L0 28.8724C0.204838 30.16 0.477955 31.4378 0.897386 32.7156C1.30706 34.0031 1.84354 35.2029 2.43855 36.3636Z" fill="#BAD345"/>
<path d="M13.3633 47.2688L15.2946 41.4261C14.6996 41.0847 14.1046 40.714 13.5389 40.2946C12.9731 39.8849 12.4464 39.446 11.9392 38.9875L6.98404 42.6356C7.90093 43.5525 8.8861 44.4303 9.96882 45.2204C11.0613 46.0105 12.2025 46.6738 13.3633 47.2688Z" fill="#BAD345"/>
<path d="M28.609 49.6586L26.746 43.7963C26.0632 43.8744 25.3707 43.9134 24.6586 43.9134C23.9563 43.9134 23.2735 43.8646 22.5907 43.7963L20.7277 49.6586C22.0152 49.8634 23.3223 50 24.6586 50C26.0144 50 27.3215 49.8634 28.609 49.6586Z" fill="#BAD345"/>
<path d="M42.3527 42.6356L37.3976 38.9875C36.8904 39.4557 36.3539 39.8946 35.7784 40.3141C35.2127 40.7238 34.6274 41.0944 34.0324 41.4358L35.9637 47.2786C37.1245 46.6836 38.256 46.03 39.3484 45.2399C40.4507 44.4401 41.4261 43.5525 42.3527 42.6356Z" fill="#BAD345"/>
<path d="M49.3367 28.8724L43.1818 28.8334C43.0452 29.5064 42.8696 30.1795 42.655 30.8525C42.4405 31.5158 42.1868 32.1596 41.904 32.7838L46.8981 36.3734C47.4931 35.2126 48.0199 34.0129 48.4393 32.7351C48.8587 31.4475 49.1318 30.16 49.3367 28.8724Z" fill="#BAD345"/>
<path d="M46.9079 13.6266L41.9137 17.2162C42.1966 17.8404 42.4502 18.4939 42.6746 19.1572C42.8892 19.8205 43.0647 20.4936 43.2013 21.1568L49.3562 21.1178C49.1513 19.8303 48.8782 18.5525 48.4588 17.2747C48.0296 15.9969 47.4931 14.7971 46.9079 13.6266Z" fill="#BAD345"/>
<path d="M35.9735 2.73118L34.0422 8.57394C34.6372 8.91533 35.2322 9.28599 35.7979 9.70542C36.3637 10.1151 36.8904 10.554 37.3976 11.0125L42.3527 7.36442C41.4358 6.44752 40.4507 5.56965 39.3679 4.77956C38.2852 3.98947 37.144 3.32618 35.9735 2.73118Z" fill="#BAD345"/>
<path d="M62.2609 28.453L67.1966 17.3722H70.552L64.8068 29.6235L71.0592 42.7917H67.655L62.2609 30.8915V42.7917H59.2079V6.69138H62.2609V28.453Z" fill="#555555"/>
<path d="M72.8735 34.2567C72.8735 33.2716 73.0003 32.4034 73.2539 31.6426C73.5075 30.8818 73.9562 30.1892 74.6 29.5845C75.2438 28.9797 76.1021 28.4042 77.1654 27.8775C78.2286 27.3508 79.5649 26.8533 81.1548 26.3753V22.659C81.1548 21.7128 80.9597 20.952 80.5696 20.3668C80.1794 19.7913 79.5454 19.4986 78.6577 19.4986C77.6433 19.4986 76.9605 19.7913 76.6191 20.3668C76.2777 20.9423 76.1119 21.7226 76.1119 22.7078V23.8783H73.1076V22.659C73.1076 21.8104 73.1954 21.03 73.3612 20.318C73.527 19.6059 73.8294 18.9914 74.2489 18.4842C74.6683 17.977 75.2438 17.5771 75.9558 17.2844C76.6679 17.0016 77.5653 16.8552 78.648 16.8552C79.7307 16.8552 80.6281 17.0016 81.3402 17.2844C82.0522 17.5771 82.618 17.9672 83.0471 18.4842C83.4666 18.9914 83.7689 19.6059 83.9348 20.318C84.1006 21.03 84.1884 21.8104 84.1884 22.659V42.7917H82.4034L81.5938 41.27C81.2524 41.9528 80.8037 42.46 80.2477 42.7917C79.6917 43.133 78.9309 43.2989 77.9847 43.2989C76.1509 43.2989 74.8439 42.8112 74.044 41.8455C73.2442 40.8798 72.8442 39.4265 72.8442 37.4951V34.2567H72.8735ZM81.1646 28.6578C80.0819 28.9992 79.1942 29.3504 78.5212 29.721C77.8384 30.0917 77.3117 30.5014 76.9215 30.9403C76.5313 31.3792 76.268 31.8767 76.1314 32.4132C75.9949 32.9594 75.9266 33.5447 75.9266 34.1885V37.4951C75.9266 38.4803 76.1217 39.2509 76.5118 39.8069C76.902 40.3629 77.5848 40.6457 78.57 40.6457C79.5161 40.6457 80.1892 40.3531 80.5793 39.7581C80.9695 39.1631 81.1646 38.412 81.1646 37.4951V28.6578Z" fill="#555555"/>
<path d="M97.7955 42.8014L96.9859 41.2212C96.2446 42.6161 94.9863 43.3086 93.2208 43.3086C91.387 43.3086 90.1092 42.8209 89.3776 41.8552C88.646 40.8896 88.2851 39.4265 88.2851 37.4561V22.7663C88.2851 20.7667 88.646 19.284 89.3483 18.3184C90.0506 17.3527 91.3187 16.865 93.1135 16.865C93.8938 16.865 94.5766 17.0308 95.1716 17.3722C95.7666 17.7136 96.2348 18.1526 96.5664 18.6988V6.69138H99.6195V42.7917H97.7955V42.8014ZM96.5664 22.8638C96.5664 21.8787 96.3616 21.0788 95.9617 20.4448C95.552 19.8205 94.8595 19.5084 93.8743 19.5084C92.9281 19.5084 92.2648 19.801 91.8942 20.396C91.5235 20.991 91.3382 21.7811 91.3382 22.7565V37.3976C91.3382 38.3828 91.5235 39.1728 91.8942 39.7581C92.2648 40.3531 92.9281 40.6457 93.8743 40.6457C94.8595 40.6457 95.552 40.3531 95.9617 39.7581C96.3714 39.1826 96.5664 38.3925 96.5664 37.4073V22.8638Z" fill="#555555"/>
<path d="M107.54 9.28599V13.0511H104.438V9.28599H107.54ZM107.54 17.3722V42.8014H104.487V17.3722H107.54Z" fill="#555555"/>
<path d="M112.271 42.8014V17.3722H114.104L114.914 19.0012C115.285 18.3281 115.782 17.8014 116.416 17.421C117.041 17.0503 117.801 16.865 118.679 16.865C120.513 16.865 121.791 17.3527 122.522 18.3184C123.254 19.284 123.615 20.7472 123.615 22.7175V42.8014H120.562V22.7078C120.562 21.7226 120.376 20.9423 120.006 20.3668C119.635 19.7913 118.972 19.4986 118.026 19.4986C117.041 19.4986 116.348 19.7913 115.938 20.3668C115.529 20.9423 115.324 21.7421 115.324 22.7565V42.7917H112.271V42.8014Z" fill="#555555"/>
<path d="M138.89 35.4565V37.4073C138.89 39.2021 138.509 40.636 137.749 41.7089C136.988 42.7721 135.505 43.3086 133.301 43.3086C132.179 43.3086 131.262 43.1623 130.531 42.8794C129.799 42.5966 129.214 42.1966 128.775 41.6797C128.336 41.1725 128.033 40.5579 127.858 39.8264C127.692 39.0948 127.604 38.295 127.604 37.4073V22.8151C127.604 21.9372 127.702 21.1276 127.887 20.396C128.073 19.6645 128.385 19.0402 128.824 18.5135C129.263 17.9867 129.848 17.5771 130.579 17.2942C131.311 17.0113 132.218 16.865 133.301 16.865C134.422 16.865 135.33 17.0113 136.051 17.2942C136.763 17.5868 137.329 17.9867 137.758 18.5135C138.178 19.0402 138.48 19.6645 138.646 20.396C138.812 21.1276 138.9 21.9274 138.9 22.8151V24.2099H135.895V22.8151C135.895 21.7323 135.71 20.9032 135.339 20.3472C134.969 19.7913 134.286 19.5084 133.311 19.5084C132.325 19.5084 131.643 19.7913 131.252 20.3472C130.862 20.9032 130.667 21.7323 130.667 22.8151V37.4073C130.667 38.4608 130.862 39.2606 131.252 39.8264C131.643 40.3824 132.325 40.6652 133.311 40.6652C134.296 40.6652 134.969 40.3824 135.339 39.8264C135.71 39.2704 135.895 38.4608 135.895 37.4073V35.4565H138.89Z" fill="#555555"/>
<path d="M153.394 35.4565V37.4073C153.394 39.2021 153.014 40.636 152.253 41.7089C151.492 42.7721 150.01 43.3086 147.805 43.3086C146.684 43.3086 145.767 43.1623 145.035 42.8794C144.303 42.5966 143.718 42.1966 143.279 41.6797C142.84 41.1725 142.538 40.5579 142.362 39.8264C142.197 39.0948 142.109 38.295 142.109 37.4073V22.8151C142.109 21.9372 142.206 21.1276 142.392 20.396C142.577 19.6645 142.879 19.0402 143.309 18.5135C143.728 17.9867 144.303 17.5771 145.035 17.2942C145.767 17.0113 146.684 16.865 147.805 16.865C148.927 16.865 149.834 17.0113 150.556 17.2942C151.268 17.5868 151.834 17.9867 152.263 18.5135C152.682 19.0402 152.985 19.6645 153.151 20.396C153.316 21.1276 153.404 21.9274 153.404 22.8151V30.1892H145.162V37.4073C145.162 39.5728 146.04 40.6652 147.805 40.6652C148.79 40.6652 149.463 40.3824 149.834 39.8264C150.205 39.2704 150.39 38.4608 150.39 37.4073V35.4565H153.394ZM150.39 22.8638C150.39 21.7811 150.205 20.952 149.834 20.3765C149.463 19.801 148.781 19.5084 147.805 19.5084C146.82 19.5084 146.137 19.7913 145.747 20.3472C145.357 20.9032 145.162 21.7323 145.162 22.8151V27.7995H150.4V22.8638H150.39Z" fill="#555555"/>
<path d="M156.106 46.4105H157.169C157.686 46.4105 158.076 46.6641 158.076 47.1518C158.076 47.5419 157.852 47.776 157.53 47.8736L158.154 48.7612H157.608L157.052 47.9516H156.555V48.7612H156.106V46.4105ZM157.13 47.581C157.433 47.581 157.608 47.4249 157.608 47.1908C157.608 46.9372 157.433 46.8006 157.13 46.8006H156.555V47.5712H157.13V47.581Z" fill="#555555"/>
<path d="M157.033 50C155.706 50 154.623 48.9173 154.623 47.5907C154.623 46.2641 155.706 45.1814 157.033 45.1814C158.359 45.1814 159.442 46.2641 159.442 47.5907C159.442 48.9173 158.359 50 157.033 50ZM157.033 45.6204C155.95 45.6204 155.062 46.508 155.062 47.5907C155.062 48.6734 155.95 49.5611 157.033 49.5611C158.115 49.5611 159.003 48.6734 159.003 47.5907C159.003 46.4982 158.115 45.6204 157.033 45.6204Z" fill="#555555"/>
</svg>
